<svg xmlns="http://www.w3.org/2000/svg" width="294" height="235" viewBox="0 0 294 235">
    <defs>
        <clipPath id="r8nd2uf2ga">
            <path data-name="Rectangle 4587" style="fill:none" d="M0 0h234.002v135.888H0z"/>
        </clipPath>
    </defs>
    <g data-name="Group 16163" transform="translate(-.396 .158)">
        <rect data-name="Rectangle 4556" width="294" height="235" rx="18" transform="translate(.396 -.158)" style="fill:#fff"/>
        <g data-name="Group 16161">
            <g data-name="Group 16160" transform="translate(30.649 50.008)" style="clip-path:url(#r8nd2uf2ga)">
                <path data-name="Path 38367" d="M742.206 225.646H654.3a5.463 5.463 0 0 1-5.463-5.463V104.069a5.463 5.463 0 0 1 5.463-5.463h87.9a5.463 5.463 0 0 1 5.463 5.463v116.114a5.463 5.463 0 0 1-5.463 5.463" transform="translate(-592.055 -89.976)" style="fill:#1d2238"/>
                <path data-name="Rectangle 4557" transform="translate(62.941 16.194)" style="fill:#fff" d="M0 0h86.517v111.911H0z"/>
                <path data-name="Path 38368" d="M1085.473 6.632a6.706 6.706 0 0 0-13.411 0h-6.213v10.624h25.837V6.632zm-6.705 1.062a2.365 2.365 0 1 1 2.365-2.365 2.365 2.365 0 0 1-2.365 2.365" transform="translate(-972.568 .004)" style="fill:#f0c36a"/>
                <path data-name="Rectangle 4558" transform="translate(87.363 27.881)" style="fill:#f1f2f5" d="M0 0h58.561v3.577H0z"/>
                <path data-name="Rectangle 4559" transform="translate(87.363 34.867)" style="fill:#f1f2f5" d="M0 0h58.561v3.577H0z"/>
                <path data-name="Rectangle 4560" transform="translate(87.363 41.852)" style="fill:#f1f2f5" d="M0 0h28.539v3.577H0z"/>
                <path data-name="Path 38369" d="M798.634 333.65h-16.47v-18.073h16.47zm-15.945-.525h15.42V316.1h-15.42z" transform="translate(-713.711 -287.958)" style="fill:#9ea9bd"/>
                <path data-name="Path 38370" d="m826.78 306.754 3.86 5.369 10.641-10.009 1.889 2.44-13.082 12.5-5.641-8.178z" transform="translate(-752.294 -275.673)" style="fill:#edb248"/>
                <path data-name="Rectangle 4561" transform="translate(87.363 50.928)" style="fill:#f1f2f5" d="M0 0h58.561v3.577H0z"/>
                <path data-name="Rectangle 4562" transform="translate(87.363 57.913)" style="fill:#f1f2f5" d="M0 0h58.561v3.577H0z"/>
                <path data-name="Rectangle 4563" transform="translate(87.363 64.899)" style="fill:#f1f2f5" d="M0 0h28.539v3.577H0z"/>
                <path data-name="Path 38371" d="M798.634 596.987h-16.47v-18.073h16.47zm-15.945-.525h15.42v-17.023h-15.42z" transform="translate(-713.711 -528.248)" style="fill:#9ea9bd"/>
                <path data-name="Path 38372" d="m826.78 570.091 3.86 5.369 10.641-10.009 1.889 2.44-13.082 12.5-5.641-8.178z" transform="translate(-752.294 -515.964)" style="fill:#edb248"/>
                <path data-name="Rectangle 4564" transform="translate(87.363 73.975)" style="fill:#f1f2f5" d="M0 0h58.561v3.577H0z"/>
                <path data-name="Rectangle 4565" transform="translate(87.363 80.96)" style="fill:#f1f2f5" d="M0 0h58.561v3.577H0z"/>
                <path data-name="Rectangle 4566" transform="translate(87.363 87.945)" style="fill:#f1f2f5" d="M0 0h28.539v3.577H0z"/>
                <path data-name="Path 38373" d="M798.634 860.324h-16.47v-18.073h16.47zm-15.945-.525h15.42v-17.023h-15.42z" transform="translate(-713.711 -768.539)" style="fill:#9ea9bd"/>
                <path data-name="Path 38374" d="m826.78 833.428 3.86 5.369 10.641-10.009 1.889 2.44-13.082 12.5-5.641-8.178z" transform="translate(-752.294 -756.254)" style="fill:#edb248"/>
                <path data-name="Rectangle 4567" transform="translate(87.363 97.022)" style="fill:#f1f2f5" d="M0 0h58.561v3.577H0z"/>
                <path data-name="Rectangle 4568" transform="translate(87.363 104.007)" style="fill:#f1f2f5" d="M0 0h58.561v3.577H0z"/>
                <path data-name="Rectangle 4569" transform="translate(87.363 110.992)" style="fill:#f1f2f5" d="M0 0h28.539v3.577H0z"/>
                <path data-name="Path 38375" d="M798.634 1123.66h-16.47v-18.073h16.47zm-15.945-.525h15.42v-17.022h-15.42z" transform="translate(-713.711 -1008.828)" style="fill:#9ea9bd"/>
                <path data-name="Path 38376" d="m826.78 1096.765 3.86 5.369 10.641-10.009 1.889 2.441-13.082 12.5-5.641-8.177z" transform="translate(-752.294 -996.544)" style="fill:#edb248"/>
                <path data-name="Rectangle 4570" transform="translate(172.003 108.351)" style="fill:#9ea9bd" d="M0 0h27.203v27.319H0z"/>
                <path data-name="Rectangle 4571" transform="translate(183.965 108.351)" style="fill:#1d2238" d="M0 0h3.279v4.326H0z"/>
                <path data-name="Rectangle 4572" transform="translate(199.206 108.351)" style="fill:#d2d6e1" d="M0 0h19.477v27.319H0z"/>
                <path data-name="Rectangle 4573" transform="translate(207.698 108.351)" style="fill:#1d2238" d="M0 0h2.493v4.326H0z"/>
                <path data-name="Rectangle 4574" transform="translate(166.76 56.068)" style="fill:#edb248" d="M0 0h27.203v52.283H0z"/>
                <path data-name="Rectangle 4575" transform="translate(178.722 56.068)" style="fill:#1d2238" d="M0 0h3.279v8.278H0z"/>
                <path data-name="Rectangle 4576" transform="translate(193.963 56.068)" style="fill:#f0c36a" d="M0 0h19.477v52.283H0z"/>
                <path data-name="Rectangle 4577" transform="translate(202.455 56.068)" style="fill:#1d2238" d="M0 0h2.493v8.278H0z"/>
                <path data-name="Rectangle 4578" transform="translate(121.021 108.351)" style="fill:#f0c36a" d="M0 0h34.987v27.319H0z"/>
                <path data-name="Rectangle 4579" transform="translate(136.406 108.351)" style="fill:#1d2238" d="M0 0h4.217v4.326H0z"/>
                <path data-name="Rectangle 4580" transform="translate(156.008 108.351)" style="fill:#f6dba6" d="M0 0h23.151v27.319H0z"/>
                <path data-name="Rectangle 4581" transform="translate(166.156 108.351)" style="fill:#1d2238" d="M0 0h4.217v4.326H0z"/>
                <path data-name="Rectangle 4582" transform="translate(125.322 81.032)" style="fill:#d2d6e1" d="M0 0h27.203v27.319H0z"/>
                <path data-name="Rectangle 4583" transform="translate(137.284 81.032)" style="fill:#1d2238" d="M0 0h3.279v4.326H0z"/>
                <path data-name="Rectangle 4584" transform="translate(152.525 81.032)" style="fill:#f1f2f5" d="M0 0h19.477v27.319H0z"/>
                <path data-name="Rectangle 4585" transform="translate(161.018 81.032)" style="fill:#1d2238" d="M0 0h2.493v4.326H0z"/>
                <path data-name="Rectangle 4586" transform="translate(0 135.451)" style="fill:#1d2238" d="M0 0h234.002v.438H0z"/>
                <path data-name="Path 38377" d="m438.33 552.068-.9.6-4.81-7.193a.543.543 0 1 1 .9-.6z" transform="translate(-394.672 -496.968)" style="fill:#1d2238"/>
                <path data-name="Path 38378" d="M444.4 616.6s.372-3.09 1.145-3.233a17.992 17.992 0 0 1 3.519 0 3.439 3.439 0 0 1 1.974 1.688l-4.892 4.749z" transform="translate(-405.506 -559.611)" style="fill:#eb9481"/>
                <path data-name="Path 38379" d="M364.5 354.628a7 7 0 0 1 1.274 2.893 1.562 1.562 0 0 1-.675 1.7l-3.319-4.592z" transform="translate(-330.122 -323.591)" style="fill:#1d2238"/>
                <path data-name="Path 38380" d="M269.689 345.356a5.4 5.4 0 0 0-5.387 4.992l-.044-.007-1.168 7.291a2.943 2.943 0 0 0 2.44 3.368c1.605.257 2.836.713 3.372-2.44l.083-.517a5.4 5.4 0 0 0 6.108-5.357v-1.93a5.4 5.4 0 0 0-5.4-5.4" transform="translate(-240.03 -315.131)" style="fill:#eb9481"/>
                <path data-name="Path 38381" d="M376.139 396.469a3.871 3.871 0 0 1 .1.425c.015.071.025.142.036.212s.023.141.029.212c.017.142.033.283.04.425l.014.212v.212l-.24-.24c.09 0 .18-.006.271 0 .046 0 .082 0 .16.007a.749.749 0 0 1 .2.054.667.667 0 0 1 .4.645.658.658 0 0 1-.137.353.6.6 0 0 1-.3.2.541.541 0 0 1-.172.019 1.023 1.023 0 0 1-.147-.024c-.09-.02-.18-.043-.271-.071a.013.013 0 0 1-.009-.017.013.013 0 0 1 .013-.009h.404a.512.512 0 0 0 .125-.033.438.438 0 0 0 0-.808.485.485 0 0 0-.123-.031h-.433v-.026c0-.566 0-1.132.012-1.7a.013.013 0 0 1 .026 0z" transform="translate(-343.184 -361.759)" style="fill:#1d2238"/>
                <path data-name="Path 38382" d="M385.792 393.156a.375.375 0 1 1-.375-.375.375.375 0 0 1 .375.375" transform="translate(-351.344 -358.405)" style="fill:#1d2238"/>
                <path data-name="Path 38383" d="M360.377 431.219a2.842 2.842 0 0 0-2.434-.882z" transform="translate(-326.617 -392.673)" style="fill:#fff"/>
                <path data-name="Path 38384" d="M378.488 378.373c-.034.14.257.33.649.425s.738.059.772-.081-.257-.33-.649-.425-.738-.059-.772.081" transform="translate(-345.361 -345.135)" style="fill:#1d2238"/>
                <path data-name="Path 38385" d="M360.945 395.146a.375.375 0 1 1-.375-.375.375.375 0 0 1 .375.375" transform="translate(-328.672 -360.221)" style="fill:#1d2238"/>
                <path data-name="Path 38386" d="M353.667 380.662c.036.139.382.17.773.069s.679-.3.643-.435-.382-.17-.773-.069-.679.3-.643.435" transform="translate(-322.712 -346.896)" style="fill:#1d2238"/>
                <path data-name="Path 38387" d="M359 431.359a4.353 4.353 0 0 1-.792-.145c-.13-.031-.254-.074-.381-.112s-.249-.088-.373-.132-.245-.1-.366-.151-.242-.107-.359-.17a4.407 4.407 0 0 1-.688-.418.011.011 0 0 1 0-.015.011.011 0 0 1 .012 0l1.484.553 1.476.574a.011.011 0 0 1 0 .021z" transform="translate(-324.87 -392.56)" style="fill:#1d2238"/>
                <path data-name="Path 38388" d="M251.062 320.937s4.707-4.148 9.264-4.146a2.947 2.947 0 0 1 2.726 1.6s-.877-6.884-8.485-5.724-4.573 8.93-4.573 8.93z" transform="translate(-227.568 -285.181)" style="fill:#f0c36a"/>
                <path data-name="Path 38389" d="M284.574 370.864s-.927 1.126-2.864 3.171c-.479.506-1.309 1.206-1.309 1.206a3.537 3.537 0 0 0-.157-1.831 18.316 18.316 0 0 1 4.329-2.546" transform="translate(-255.719 -338.406)" style="fill:#1d2238"/>
                <path data-name="Path 38390" d="M350.755 360.023a2.566 2.566 0 0 0 2.114 1.153s-2.427.8-3.373-.89z" transform="translate(-318.909 -328.514)" style="fill:#1d2238"/>
                <path data-name="Path 38391" d="m257.684 404.662-.358 2.114-1.1-3.178 1.847-1.2z" transform="translate(-233.8 -367.183)" style="fill:#1d2238"/>
                <path data-name="Path 38392" d="M260.022 397.7a1.1 1.1 0 1 0 1.076-1.331 1.224 1.224 0 0 0-1.076 1.331" transform="translate(-237.265 -361.678)" style="fill:#eb9481"/>
                <path data-name="Path 38393" d="M267.2 403.386a.81.81 0 0 0-.291-.167.4.4 0 0 0-.135-.02.36.36 0 0 0-.118.018.534.534 0 0 0-.309.329.745.745 0 0 0-.038.124c0 .022-.009.043-.011.065v.065c0 .003 0 0-.01-.015a.107.107 0 0 0-.067-.044c-.032 0 .018.014.062.008.1-.011.218-.037.341-.056a.839.839 0 0 1 .39.016.013.013 0 0 1 .008.017.013.013 0 0 1-.012.009 1.056 1.056 0 0 0-.338.093c-.111.043-.219.093-.337.128a.361.361 0 0 1-.189.014.135.135 0 0 1-.082-.065.224.224 0 0 1-.025-.1.9.9 0 0 1 .059-.362.762.762 0 0 1 .208-.3.574.574 0 0 1 .336-.146.547.547 0 0 1 .352.095.714.714 0 0 1 .234.277.013.013 0 0 1-.02.016z" transform="translate(-242.754 -367.729)" style="fill:#1d2238"/>
                <path data-name="Path 38394" d="M341.149 330.821s3.229-4.327 7.131-3.281-1.5 4.393-1.5 4.393-1.5-2.534-5.626-1.112" transform="translate(-311.292 -298.725)" style="fill:#f1f2f5"/>
                <path data-name="Path 38395" d="M284.235 314.274c.037.19-.37.429-.908.533s-1 .034-1.041-.156.37-.429.908-.533 1-.034 1.041.156" transform="translate(-257.579 -286.582)" style="fill:#1d2238"/>
                <path data-name="Path 38396" d="M305.751 470.6a11.419 11.419 0 0 1-2.406-1.9 3.871 3.871 0 0 0 2.323 2.413z" transform="translate(-276.797 -427.681)" style="fill:#1d2238"/>
                <path data-name="Path 38397" d="m355.327 1474.12 8.179 3.566a3.291 3.291 0 0 1 1.975 3.078l-17.782-.038.946-6.62z" transform="translate(-317.269 -1345.095)" style="fill:#4a4e60"/>
                <path data-name="Path 38398" d="M347.728 1534.415c1.465.085 2.929.13 4.394.162.732.02 1.465.025 2.2.038l2.2.016 2.2-.005c.732-.01 1.465-.011 2.2-.028a121.69 121.69 0 0 0 4.395-.144 121.69 121.69 0 0 0-4.394-.163c-.732-.02-1.465-.025-2.2-.037l-2.2-.015-2.2.006c-.732.009-1.465.012-2.2.028-1.465.026-2.93.065-4.395.143" transform="translate(-317.296 -1399.964)" style="fill:#1d2238"/>
                <path data-name="Path 38399" d="M372.183 1489.42a1.615 1.615 0 1 0 1.618-1.611 1.615 1.615 0 0 0-1.618 1.611" transform="translate(-339.61 -1357.599)" style="fill:#1d2238"/>
                <path data-name="Path 38400" d="M497.988 1506.87a1.085 1.085 0 0 0-.6-.057 1.423 1.423 0 0 0-.537.213 1.358 1.358 0 0 0-.412.424.943.943 0 0 0-.14.6l.034.02a2.135 2.135 0 0 1 .154-.208c.028-.033.053-.068.083-.1l.09-.092a2.645 2.645 0 0 1 .407-.319 3.542 3.542 0 0 1 .452-.255c.078-.037.158-.071.239-.1s.162-.064.244-.09z" transform="translate(-452.854 -1374.923)" style="fill:#1d2238"/>
                <path data-name="Path 38401" d="M474.138 1496.692a1.085 1.085 0 0 0-.6-.057 1.425 1.425 0 0 0-.537.213 1.358 1.358 0 0 0-.412.424.944.944 0 0 0-.14.6l.034.02a2.147 2.147 0 0 1 .154-.208c.028-.033.053-.068.083-.1l.09-.093a2.631 2.631 0 0 1 .407-.318 3.494 3.494 0 0 1 .451-.255q.118-.055.239-.1c.08-.033.162-.064.244-.09z" transform="translate(-431.092 -1365.636)" style="fill:#1d2238"/>
                <path data-name="Path 38402" d="M452.067 1487.455a1.085 1.085 0 0 0-.6-.057 1.425 1.425 0 0 0-.537.213 1.36 1.36 0 0 0-.412.424.943.943 0 0 0-.14.6l.034.02a2.1 2.1 0 0 1 .154-.208c.028-.032.053-.068.083-.1l.09-.093a2.652 2.652 0 0 1 .407-.318 3.514 3.514 0 0 1 .452-.255c.078-.037.158-.071.239-.1s.162-.064.244-.09z" transform="translate(-410.952 -1357.207)" style="fill:#1d2238"/>
                <path data-name="Path 38403" d="m233.546 1474.12 8.179 3.566a3.291 3.291 0 0 1 1.975 3.078l-17.782-.038.946-6.62z" transform="translate(-206.146 -1345.095)" style="fill:#9ea9bd"/>
                <path data-name="Path 38404" d="M225.947 1534.415c1.465.085 2.929.13 4.394.162.732.02 1.465.025 2.2.038l2.2.016 2.2-.005c.732-.01 1.465-.011 2.2-.028a121.69 121.69 0 0 0 4.395-.144 121.69 121.69 0 0 0-4.394-.163c-.732-.02-1.465-.025-2.2-.037l-2.2-.015-2.2.006c-.732.009-1.465.012-2.2.028-1.465.026-2.93.065-4.395.143" transform="translate(-206.173 -1399.964)" style="fill:#1d2238"/>
                <path data-name="Path 38405" d="M250.4 1489.42a1.615 1.615 0 1 0 1.618-1.611 1.615 1.615 0 0 0-1.618 1.611" transform="translate(-228.487 -1357.599)" style="fill:#1d2238"/>
                <path data-name="Path 38406" d="M376.207 1506.87a1.085 1.085 0 0 0-.6-.057 1.422 1.422 0 0 0-.537.213 1.357 1.357 0 0 0-.412.424.943.943 0 0 0-.14.6l.034.02a2.13 2.13 0 0 1 .154-.208c.028-.033.053-.068.083-.1l.09-.092a2.641 2.641 0 0 1 .407-.319 3.547 3.547 0 0 1 .451-.255c.079-.037.158-.071.239-.1s.162-.064.244-.09z" transform="translate(-341.731 -1374.923)" style="fill:#1d2238"/>
                <path data-name="Path 38407" d="M352.357 1496.692a1.085 1.085 0 0 0-.6-.057 1.425 1.425 0 0 0-.537.213 1.357 1.357 0 0 0-.412.424.944.944 0 0 0-.14.6l.034.02a2.136 2.136 0 0 1 .154-.208c.028-.033.053-.068.083-.1l.09-.093a2.628 2.628 0 0 1 .407-.318 3.5 3.5 0 0 1 .452-.255q.118-.055.239-.1c.08-.033.162-.064.244-.09z" transform="translate(-319.969 -1365.636)" style="fill:#1d2238"/>
                <path data-name="Path 38408" d="M330.286 1487.455a1.085 1.085 0 0 0-.6-.057 1.424 1.424 0 0 0-.537.213 1.359 1.359 0 0 0-.412.424.943.943 0 0 0-.14.6l.034.02a2.118 2.118 0 0 1 .154-.208c.028-.032.053-.068.083-.1l.09-.093a2.652 2.652 0 0 1 .407-.318 3.518 3.518 0 0 1 .451-.255c.079-.037.158-.071.239-.1s.162-.064.244-.09z" transform="translate(-299.829 -1357.207)" style="fill:#1d2238"/>
                <path data-name="Path 38409" d="m192.155 900.379-1.6-32.794a19.84 19.84 0 0 0-.326-2.745l-3.393-17.823-20.568-1.608a25.175 25.175 0 0 0 2.119 16.125l2.131 39.106 10.977-.07v-.123z" transform="translate(-151.269 -771.42)" style="fill:#1d2238"/>
                <path data-name="Path 38410" d="m326.235 876.053.14 1.636.13 1.637.261 3.274.478 6.551.119 1.638.109 1.639.216 3.277.431 6.555.024.41c.007.137 0 .274 0 .411v.821l-.006 1.642-.011 3.284-.011 3.284-.007 1.642-.017 1.642-.07 6.568-.056 3.284-.028 1.642-.038 1.642h-.029l-.007-13.132v-12.721l-.026-.41-1.62-26.214z" transform="translate(-297.656 -799.382)" style="fill:#4a4e60"/>
                <path data-name="Path 38411" d="m200.512 508.76-2.819-4.387-6.51 1.762-1.7-11.669a11.322 11.322 0 0 0-.046-.315c-.426-2.567-4.967-7.032-4.967-7.032l-1 1.033-4.668-2.528a17.189 17.189 0 0 0-6.264 4.585c-2.384 3.026-1.794 26.9-1.794 26.9s4.819 3.905 8.306 4.547 12.636-1.865 12.636-1.865-.158-2-.392-4.9z" transform="translate(-155.735 -443.123)" style="fill:#f0c36a"/>
                <path data-name="Path 38412" d="m256.3 488.152-2.2 1.887a.962.962 0 0 1-1.248.006c-1.015-.86-2.817-2.629-2.25-3.939l1.029-.483z" transform="translate(-228.568 -443.123)" style="fill:#fff"/>
                <path data-name="Path 38413" d="m316.823 503.745 1.086 1.171a.638.638 0 0 0 1.025-.122l.319-.57-1.427-1.512z" transform="translate(-289.095 -458.715)" style="fill:#fff"/>
                <path data-name="Path 38414" d="m169.6 541.018 4.058 11.6 12.623-6.392 2 4.9-11.234 9.3a6.787 6.787 0 0 1-9.779-1.187c-1.9-2.567-4.31-6.084-4.554-7.732-.409-2.759-2.491-8.018 1.762-13.485z" transform="translate(-147.679 -490.931)" style="fill:#f0c36a"/>
                <path data-name="Path 38415" d="M262.916 579.671q-1.025.571-2.059 1.124c-.688.371-1.379.736-2.07 1.1s-1.383.728-2.078 1.085-1.388.72-2.085 1.073l-.2.1-.045-.218c-.1-.5-.219-1-.337-1.5s-.237-1-.364-1.5c-.255-1-.52-1.989-.817-2.973s-.615-1.961-.986-2.918a18.985 18.985 0 0 0-.611-1.413 8.775 8.775 0 0 0-.777-1.33 7.864 7.864 0 0 1 .875 1.278c.251.453.482.917.689 1.391.419.947.771 1.92 1.094 2.9s.607 1.976.864 2.977.5 2 .7 3.02l-.243-.118c.7-.352 1.4-.7 2.1-1.044s1.4-.687 2.106-1.031 1.407-.68 2.114-1.014 1.414-.667 2.126-.992" transform="translate(-228.567 -522.215)" style="fill:#1d2238"/>
                <path data-name="Path 38416" d="m171.777 692.1.421.761.416.764q.417.763.84 1.522c.281.507.563 1.013.851 1.515l.434.752q.218.378.43.758a15.426 15.426 0 0 0 1.889 2.867 5.822 5.822 0 0 0 .612.581c.106.092.222.17.335.252s.235.151.359.215a4.983 4.983 0 0 0 1.586.533 7.319 7.319 0 0 0 3.354-.285 8.634 8.634 0 0 0 1.57-.661q.374-.206.726-.448c.234-.161.453-.34.68-.524q1.351-1.095 2.712-2.178l1.365-1.078.683-.539.687-.534-.653.575-.657.57-1.315 1.139q-1.32 1.132-2.647 2.256c-.219.186-.445.379-.685.553a8.679 8.679 0 0 1-.747.476 8.948 8.948 0 0 1-1.619.709 8.369 8.369 0 0 1-1.734.363 6.9 6.9 0 0 1-1.778-.049 5.33 5.33 0 0 1-1.692-.578c-.133-.069-.258-.153-.385-.233s-.246-.173-.359-.272a5.66 5.66 0 0 1-.643-.62 9.978 9.978 0 0 1-1.033-1.432c-.305-.5-.579-1.014-.85-1.526q-.2-.385-.41-.764c-.14-.254-.279-.509-.415-.766q-.408-.769-.8-1.545t-.771-1.56l-.381-.782z" transform="translate(-156.743 -631.524)" style="fill:#1d2238"/>
                <path data-name="Path 38417" d="M278.368 704.481a3.812 3.812 0 0 1-.079-.319 2.262 2.262 0 0 1-.055-.325 3.952 3.952 0 0 1-.017-.661 4.273 4.273 0 0 1 .272-1.3 4.208 4.208 0 0 1 .653-1.159 3.126 3.126 0 0 1 1-.858 11.436 11.436 0 0 0-.655 1.085 9.011 9.011 0 0 0-.506 1.117 9.15 9.15 0 0 0-.356 1.174c-.058.2-.085.406-.134.613s-.067.418-.123.635" transform="translate(-253.86 -638.607)" style="fill:#1d2238"/>
                <path data-name="Path 38418" d="m420.734 577.411-5.211-2.177a.483.483 0 0 1-.142-.8l13.441-12.45a.483.483 0 0 1 .76.137l2.845 5.644a.514.514 0 0 1-.133.629l-10.891 8.92a.657.657 0 0 1-.67.1" transform="translate(-378.886 -512.682)" style="fill:#4a4e60"/>
                <path data-name="Path 38419" d="M398.934 734.536a38.273 38.273 0 0 1-.216-1.608q-.048-.4-.088-.806c-.028-.269-.056-.537-.079-.806-.051-.538-.092-1.076-.133-1.614-.022-.269-.036-.539-.054-.808s-.036-.539-.048-.808v-.106l.086-.047c.264-.144.527-.291.793-.432s.531-.284.8-.421.535-.276.806-.41.541-.266.816-.392q-.372.259-.751.506c-.252.166-.506.327-.76.488s-.512.317-.767.477-.516.31-.773.466l.081-.152c.026.269.045.538.066.807s.044.538.06.808c.035.539.07 1.077.1 1.617.015.27.026.539.036.809s.02.54.026.81c.015.54.022 1.081.013 1.623" transform="translate(-363.451 -662.715)" style="fill:#1d2238"/>
                <path data-name="Path 38420" d="M502.879 661.307c-.02-.134-.058-.268-.091-.4-.067-.27-.131-.54-.2-.81l-.274-1.127a.713.713 0 0 0-1.385.337l.026.108a.712.712 0 0 0-1.154.711l.087.356a.216.216 0 0 0-.082-.089.563.563 0 0 0-.765.131.787.787 0 0 0-.05.489c.055.757.165 1.514.248 2.268l-1.386 1.289.317.494c.286-.1.551-.155.837-.254.38-.132.771-.237 1.139-.4a3.277 3.277 0 0 0 .79-.524 11.654 11.654 0 0 0 1.286-1.323c.183-.215.364-.433.534-.658a.752.752 0 0 0 .119-.6" transform="translate(-454.286 -600.803)" style="fill:#eb9481"/>
                <path data-name="Path 38421" d="M511.238 713.9a1.439 1.439 0 0 0 .137 1.036s-.515-.12-.335-.853z" transform="translate(-466.281 -651.418)" style="fill:#1d2238"/>
                <path data-name="Path 38422" d="M533.3 669.725a1.261 1.261 0 0 1 .426.617c.077.24.138.482.2.725s.117.487.168.732l.075.368c.022.123.046.246.065.37-.038-.119-.071-.24-.107-.36l-.1-.362c-.066-.241-.126-.484-.187-.726l-.179-.727a1.242 1.242 0 0 0-.139-.339 1.5 1.5 0 0 0-.223-.3" transform="translate(-486.627 -611.112)" style="fill:#1d2238"/>
                <path data-name="Path 38423" d="M521.112 681.926a.938.938 0 0 1 .419.517c.064.215.109.432.156.65s.087.436.122.655l.052.329c.014.11.031.22.042.331-.031-.107-.056-.215-.084-.323l-.076-.324c-.051-.216-.1-.433-.142-.65s-.088-.435-.135-.65a.754.754 0 0 0-.133-.291 1.321 1.321 0 0 0-.222-.244" transform="translate(-475.505 -622.245)" style="fill:#1d2238"/>
                <path data-name="Path 38424" d="M425.866 581.68c.517-.505 1.042-1 1.565-1.5s1.05-.992 1.576-1.486l1.588-1.474 1.6-1.464c1.069-.971 2.138-1.942 3.215-2.9l.807-.723.811-.718q.81-.719 1.626-1.432l.131-.114.076.151.616 1.223.61 1.226.6 1.23q.3.614.6 1.234-.341-.594-.675-1.192l-.669-1.2-.661-1.2-.655-1.2.207.037q-.793.738-1.593 1.468l-.8.732-.8.728q-1.6 1.458-3.221 2.9l-1.622 1.436-1.631 1.426c-.546.472-1.091.947-1.642 1.414s-1.1.939-1.654 1.4" transform="translate(-388.595 -519.991)" style="fill:#1d2238"/>
            </g>
        </g>
    </g>
</svg>
