<svg xmlns="http://www.w3.org/2000/svg" width="186" height="186" viewBox="0 0 186 186">
    <defs>
        <clipPath id="li7pmm26ua">
            <path data-name="Rectangle 3979" style="fill:none" d="M0 0h155.826v155.822H0z"/>
        </clipPath>
    </defs>
    <g data-name="Group 15934" transform="translate(-864 -2406)">
        <circle data-name="Ellipse 1421" cx="93" cy="93" r="93" transform="translate(864 2406)" style="opacity:.72;fill:#fff"/>
        <g data-name="Group 14759" transform="translate(18077 20437)">
            <circle data-name="Ellipse 1421" cx="13" cy="13" r="13" transform="translate(-17133.08 -17951.08)" style="fill:#fff"/>
            <path data-name="Path 37482" d="M30.759 0a30.759 30.759 0 1 0 30.759 30.759A30.759 30.759 0 0 0 30.759 0zm9.848 31.591-14.889 8.6a.961.961 0 0 1-1.442-.832V22.162a.961.961 0 0 1 1.442-.833l14.889 8.6a.961.961 0 0 1 0 1.665z" transform="translate(-17151 -17969)" style="fill:#0d80ce"/>
        </g>
        <g data-name="Group 14760">
            <text transform="rotate(-51.26 3021.608 296.214)" style="font-family:Montserrat-SemiBold,Montserrat;font-weight:600;font-size:17px"><tspan x="0" y="0">W</tspan></text>
            <text transform="rotate(-32.11 4706.7 -368.135)" style="font-size:16px;font-family:Montserrat-SemiBold,Montserrat;font-weight:600"><tspan x="0" y="0">A</tspan></text>
            <g data-name="Group 14761">
                <g data-name="Group 14760" style="clip-path:url(#li7pmm26ua)" transform="translate(879 2421)">
                    <text transform="rotate(-17.594 86.27 -161.212)" style="font-family:Montserrat-SemiBold,Montserrat;font-weight:600;font-size:17px"><tspan x="0" y="0">T</tspan></text>
                    <text transform="matrix(.999 -.05 .05 .999 67.466 15.17)" style="font-size:18px;font-family:Montserrat-SemiBold,Montserrat;font-weight:600"><tspan x="0" y="0">C</tspan></text>
                    <text transform="rotate(13.781 -13.768 360.173)" style="font-family:Montserrat-SemiBold,Montserrat;font-weight:600;font-size:17px"><tspan x="0" y="0">H</tspan></text>
                </g>
            </g>
            <text transform="rotate(26.588 -4663.875 3302.588)" style="font-size:12px;font-family:Montserrat-SemiBold,Montserrat;font-weight:600"><tspan x="0" y="0"> </tspan></text>
            <text transform="rotate(38.59 -2995.35 2636.109)" style="font-size:18px;font-family:Montserrat-SemiBold,Montserrat;font-weight:600"><tspan x="0" y="0">V</tspan></text>
            <text transform="rotate(50.64 -2091.302 2291.032)" style="font-size:14px;font-family:Montserrat-SemiBold,Montserrat;font-weight:600"><tspan x="0" y="0">I</tspan></text>
            <text transform="rotate(63.9 -1470.35 2041.69)" style="font-size:18px;font-family:Montserrat-SemiBold,Montserrat;font-weight:600"><tspan x="0" y="0">D</tspan></text>
            <g data-name="Group 14763">
                <g data-name="Group 14762" style="clip-path:url(#li7pmm26ua)" transform="translate(879 2421)">
                    <text transform="rotate(80.339 33.618 112.7)" style="font-size:18px;font-family:Montserrat-SemiBold,Montserrat;font-weight:600"><tspan x="0" y="0">E</tspan></text>
                    <text transform="rotate(96.657 37.458 102.52)" style="font-size:16px;font-family:Montserrat-SemiBold,Montserrat;font-weight:600"><tspan x="0" y="0">O</tspan></text>
                    <text data-name="-" transform="rotate(110.981 36.958 97.447)" style="font-size:14px;font-family:Montserrat-SemiBold,Montserrat;font-weight:600"><tspan x="0" y="0">-</tspan></text>
                </g>
            </g>
            <text data-name="W" transform="scale(-1) rotate(-52.97 -3046.046 -245.702)" style="font-family:Montserrat-SemiBold,Montserrat;font-weight:600;font-size:17px"><tspan x="0" y="0">W</tspan></text>
            <text data-name="A" transform="rotate(146.194 112.386 1426.319)" style="font-size:16px;font-family:Montserrat-SemiBold,Montserrat;font-weight:600"><tspan x="0" y="0">A</tspan></text>
            <g data-name="Group 14765">
                <g data-name="Group 14764" style="clip-path:url(#li7pmm26ua)" transform="translate(879 2421)">
                    <text data-name="T" transform="rotate(160.696 40.795 77.172)" style="font-family:Montserrat-SemiBold,Montserrat;font-weight:600;font-size:17px"><tspan x="0" y="0">T</tspan></text>
                    <text data-name="C" transform="rotate(175.456 42.325 71.951)" style="font-size:18px;font-family:Montserrat-SemiBold,Montserrat;font-weight:600"><tspan x="0" y="0">C</tspan></text>
                    <text data-name="H" transform="rotate(-167.96 43.688 67.361)" style="font-family:Montserrat-SemiBold,Montserrat;font-weight:600;font-size:17px"><tspan x="0" y="0">H</tspan></text>
                </g>
            </g>
            <text transform="rotate(-155.125 747.9 1178.34)" style="font-size:12px;font-family:Montserrat-SemiBold,Montserrat;font-weight:600"><tspan x="0" y="0"> </tspan></text>
            <text data-name="V" transform="rotate(-143.113 888.274 1122.707)" style="font-size:18px;font-family:Montserrat-SemiBold,Montserrat;font-weight:600"><tspan x="0" y="0">V</tspan></text>
            <text data-name="I" transform="rotate(-131.061 1033.582 1065.53)" style="font-size:14px;font-family:Montserrat-SemiBold,Montserrat;font-weight:600"><tspan x="0" y="0">I</tspan></text>
            <text data-name="D" transform="rotate(-117.839 1216.646 995.123)" style="font-size:18px;font-family:Montserrat-SemiBold,Montserrat;font-weight:600"><tspan x="0" y="0">D</tspan></text>
            <g data-name="Group 14767">
                <g data-name="Group 14766" style="clip-path:url(#li7pmm26ua)" transform="translate(879 2421)">
                    <text data-name="E" transform="rotate(-101.374 48.358 41.42)" style="font-size:18px;font-family:Montserrat-SemiBold,Montserrat;font-weight:600"><tspan x="0" y="0">E</tspan></text>
                    <text data-name="O" transform="rotate(-85 50.087 33.616)" style="font-size:16px;font-family:Montserrat-SemiBold,Montserrat;font-weight:600"><tspan x="0" y="0">O</tspan></text>
                    <text data-name="-" transform="rotate(-70.73 49.227 20.015)" style="font-size:14px;font-family:Montserrat-SemiBold,Montserrat;font-weight:600"><tspan x="0" y="0">-</tspan></text>
                </g>
            </g>
        </g>
    </g>
</svg>
