<svg xmlns="http://www.w3.org/2000/svg" width="42.034" height="33.413" viewBox="0 0 42.034 33.413">
    <path data-name="Path 38463" d="M30.046 34.09 11.875 17.946a3.61 3.61 0 0 1 1.273-.238h34.488a3.61 3.61 0 0 1 1.273.238L30.715 34.113a.52.52 0 0 1-.669-.022zm21.147-13.861L32.892 36.57a3.625 3.625 0 0 1-2.5.948 3.753 3.753 0 0 1-2.522-.948L9.611 20.229a3.625 3.625 0 0 0-.236 1.251v25.867a3.794 3.794 0 0 0 3.773 3.773h34.488a3.794 3.794 0 0 0 3.773-3.773V21.48a4.068 4.068 0 0 0-.216-1.251z" style="fill:#0d80ce" transform="translate(-9.375 -17.707)"/>
</svg>
