<svg xmlns="http://www.w3.org/2000/svg" width="43.868" height="43.879" viewBox="0 0 43.868 43.879">
    <path data-name="Path 38462" d="M24.515 45.782c7.23 7.23 11.311 9.335 17.18 11.068a12.123 12.123 0 0 0 3.429.5 12.4 12.4 0 0 0 8.8-3.671l1.006-.988a5.725 5.725 0 0 0 1.64-5.851 10.651 10.651 0 0 0-7.253-7.24 5.536 5.536 0 0 0-5.665 1.435L41.6 43.08a3.346 3.346 0 0 1-4.286.41A42.2 42.2 0 0 1 26.77 32.98a3.4 3.4 0 0 1 .447-4.286l2.05-2.05A5.571 5.571 0 0 0 30.72 21a10.713 10.713 0 0 0-7.248-7.267 5.614 5.614 0 0 0-5.665 1.435l-1.193 1.211A12.364 12.364 0 0 0 13.447 28.6c1.733 5.87 3.839 9.951 11.068 17.18z" style="fill:#0d80ce" transform="translate(-12.953 -13.474)"/>
</svg>
