<svg xmlns="http://www.w3.org/2000/svg" xmlns:xlink="http://www.w3.org/1999/xlink" width="32" height="28.72" viewBox="0 0 32 28.72">
  <defs>
    <linearGradient id="linear-gradient" y1="0.5" x2="1" y2="0.5" gradientUnits="objectBoundingBox">
      <stop offset="0" stop-color="#4795d1"/>
      <stop offset="1" stop-color="#67cce6"/>
    </linearGradient>
    <linearGradient id="linear-gradient-2" y1="0.5" x2="1" y2="0.5" gradientUnits="objectBoundingBox">
      <stop offset="0" stop-color="#3499cc"/>
      <stop offset="1" stop-color="#67cce6"/>
    </linearGradient>
    <linearGradient id="linear-gradient-3" x1="0" y1="0.5" x2="1" y2="0.5" xlink:href="#linear-gradient"/>
  </defs>
  <g id="KTS_favicon" transform="translate(23279 2974.937)">
    <path id="Path_31320" data-name="Path 31320" d="M629.143,106.488a2.977,2.977,0,0,0-4.263,4.157l8.556,8.773a2.977,2.977,0,1,0,4.263-4.157Z" transform="translate(-23887.467 -3078.856)" fill="url(#linear-gradient)"/>
    <path id="Path_31321" data-name="Path 31321" d="M50.892,114.488h0l-2.185-2.24-10.236-10.5a2.977,2.977,0,0,0-4.21-.052h0a2.977,2.977,0,0,0-.052,4.21l8.263,8.473-11.91,11.336c-.026.026-.052.052-.079.081a1.353,1.353,0,0,0,1.042,2.228l4.073-.006a2.787,2.787,0,0,0,1.943-.794l9.087-8.581,8.263,8.474a2.977,2.977,0,1,0,4.263-4.157Z" transform="translate(-23309.152 -3074.245)" fill="url(#linear-gradient-2)"/>
    <path id="Path_31322" data-name="Path 31322" d="M1026.818,41.87a2.977,2.977,0,1,0,2.977,2.977,2.977,2.977,0,0,0-2.977-2.977Z" transform="translate(-24276.795 -3016.807)" fill="url(#linear-gradient-3)"/>
  </g>
</svg>
