<svg xmlns="http://www.w3.org/2000/svg" width="121.681" height="27.385" viewBox="0 0 121.681 27.385">
    <g data-name="Group 14365">
        <g data-name="Group 13766">
            <path data-name="Path 32508" d="M945.215 154.975a6.012 6.012 0 0 1 3.241.933 2.3 2.3 0 0 0 2.938-.452l.5-.577a8.857 8.857 0 0 0-6.655-2.648 8.558 8.558 0 0 0-8.66 7.345h1.521a2.313 2.313 0 0 0 2.093-1.349 5.477 5.477 0 0 1 5.018-3.251z" transform="translate(-936.58 -152.215)" style="fill:#fff"/>
            <path data-name="Path 32509" d="M945.225 369.27a5.477 5.477 0 0 1-5.018-3.251 2.314 2.314 0 0 0-2.093-1.349h-1.524a8.558 8.558 0 0 0 8.66 7.345 8.859 8.859 0 0 0 6.655-2.648l-.5-.577a2.3 2.3 0 0 0-2.938-.452 6.014 6.014 0 0 1-3.241.933z" transform="translate(-936.59 -354.995)" style="fill:#fff"/>
        </g>
        <g data-name="Group 13767">
            <path data-name="Path 32510" d="M1698.615 152.22v.373a2.3 2.3 0 0 1-2.3 2.3h-7.275v-.373a2.3 2.3 0 0 1 2.3-2.3z" transform="translate(-1654.826 -152.205)" style="fill:#fff"/>
            <path data-name="Path 32511" d="M1696.946 308.24a2.673 2.673 0 0 1-2.673 2.673h-5.224v-2.673h7.9z" transform="translate(-1654.836 -301.131)" style="fill:#fff"/>
            <path data-name="Path 32512" d="M1698.736 469.77v.371h-7.4a2.3 2.3 0 0 1-2.3-2.3v-.372h7.4a2.3 2.3 0 0 1 2.3 2.301z" transform="translate(-1654.826 -453.121)" style="fill:#fff"/>
        </g>
        <g data-name="Group 13768">
            <path data-name="Path 32513" d="M3402.425 152.22v.373a2.3 2.3 0 0 1-2.3 2.3h-7.275v-.373a2.3 2.3 0 0 1 2.3-2.3z" transform="translate(-3281.165 -152.205)" style="fill:#fff"/>
            <path data-name="Path 32514" d="M3400.756 308.24a2.672 2.672 0 0 1-2.672 2.673h-5.224v-2.673h7.9z" transform="translate(-3281.175 -301.131)" style="fill:#fff"/>
            <path data-name="Path 32515" d="M3402.556 469.77v.371h-7.4a2.3 2.3 0 0 1-2.3-2.3v-.372h7.4a2.3 2.3 0 0 1 2.3 2.301z" transform="translate(-3281.175 -453.121)" style="fill:#fff"/>
        </g>
        <path data-name="Path 32516" d="M2381.615 152.22h-6.7v.424a2.3 2.3 0 0 0 2.3 2.3h4.161c2.236 0 3.669 1.045 3.669 3.038v.048c0 1.774-1.41 3.038-3.669 3.038h-6.461v8.162h.688a2.3 2.3 0 0 0 2.3-2.3v-3.17h3.376c3.741 0 6.8-1.991 6.8-5.806v-.054c0-3.425-2.478-5.684-6.461-5.684z" transform="translate(-2309.51 -152.205)" style="fill:#fff"/>
        <path data-name="Path 32517" d="M2715.971 162.021v-9.791h.688a2.3 2.3 0 0 1 2.3 2.3v7.37c0 3.158 1.627 4.834 4.3 4.834s4.275-1.579 4.275-4.713v-5.09h.688a2.3 2.3 0 0 1 2.3 2.3v2.644c0 5.077-2.867 7.628-7.313 7.628s-7.24-2.551-7.24-7.482z" transform="translate(-2635.062 -152.215)" style="fill:#fff"/>
        <path data-name="Path 32518" d="M2982.409 162.789a5.107 5.107 0 0 0 4.031-5.15v-.049a5.141 5.141 0 0 0-1.407-3.669 6.858 6.858 0 0 0-4.907-1.7h-10v.417a2.3 2.3 0 0 0 2.3 2.3h7.448c2.211 0 3.523 1 3.523 2.819v.048c0 1.725-1.361 2.842-3.5 2.842h-4.373V161a2.3 2.3 0 0 0 2.3 2.3h1.44l3.492 4.953a2.3 2.3 0 0 0 1.879.974H2987l-4.592-6.437z" transform="translate(-2877.665 -152.205)" style="fill:#fff"/>
        <path data-name="Path 32519" d="M1955.7 151.89h1.865a2.414 2.414 0 0 1 2.035 1.11l4.462 6.933 4.461-6.933a2.414 2.414 0 0 1 2.031-1.108h1.865V168.9h-.713a2.275 2.275 0 0 1-2.275-2.275V156.7l-5.369 8.017h-.1l-5.321-7.968v9.9a2.244 2.244 0 0 1-2.244 2.244h-.7V151.89z" transform="translate(-1909.362 -151.89)" style="fill:#fff"/>
        <g data-name="Group 13769">
            <path data-name="Path 32520" d="M1574.815 152.39h-.707a2.278 2.278 0 0 0-2.278 2.278v12.439a2.278 2.278 0 0 0 2.277 2.278h.706z" transform="translate(-1542.945 -152.367)" style="fill:#fff"/>
            <path data-name="Path 32521" d="M1337.091 159.455v.491a2.278 2.278 0 0 1-2.278 2.278h-4.027v4.884a2.278 2.278 0 0 1-2.278 2.278h-.709V152.39h.709a2.278 2.278 0 0 1 2.278 2.278v4.777z" transform="translate(-1310.011 -152.367)" style="fill:#fff"/>
        </g>
        <path data-name="Path 32522" d="M944.527 620.357a1.951 1.951 0 0 1 0 3.125 3.6 3.6 0 0 1-2.148.567h-1.736v1.851h-1v-6.11h2.739a3.6 3.6 0 0 1 2.148.568zm-.722 2.58a1.281 1.281 0 0 0 0-2.033 2.515 2.515 0 0 0-1.455-.354h-1.706v2.741h1.706a2.514 2.514 0 0 0 1.455-.353z" transform="translate(-939.501 -598.515)" style="fill:#fff"/>
        <path data-name="Path 32523" d="m1154.646 625.9-1.515-1.876a7.18 7.18 0 0 1-.441.017h-1.736v1.859h-1v-6.11h2.739a3.6 3.6 0 0 1 2.147.568 1.825 1.825 0 0 1 .782 1.562 1.856 1.856 0 0 1-.4 1.2 2.273 2.273 0 0 1-1.144.724l1.666 2.051h-1.094zm-.532-2.959a1.286 1.286 0 0 0 0-2.038 2.514 2.514 0 0 0-1.455-.354h-1.706v2.75h1.706a2.489 2.489 0 0 0 1.455-.358z" transform="translate(-1140.248 -598.515)" style="fill:#fff"/>
        <path data-name="Path 32524" d="M1363.57 619.79h1v6.11h-1z" transform="translate(-1344.155 -598.515)" style="fill:#fff"/>
        <path data-name="Path 32525" d="m1467.385 619.79-3.081 6.11h-.993l-3.091-6.11h1.083l2.528 5.019 2.549-5.019h1z" transform="translate(-1436.411 -598.515)" style="fill:#fff"/>
        <path data-name="Path 32526" d="M1667.909 624.363h-3.732l-.773 1.527h-1.033l3.181-6.11h.993l3.191 6.11h-1.053l-.773-1.527zm-.351-.7-1.515-2.994-1.515 2.994z" transform="translate(-1629.369 -598.505)" style="fill:#fff"/>
        <path data-name="Path 32527" d="M1872.879 620.549h-2.408v-.759h5.81v.759h-2.408v5.351h-.994z" transform="translate(-1828.007 -598.515)" style="fill:#fff"/>
        <path data-name="Path 32528" d="M2080.577 625.141v.759h-5.1v-6.11h4.957v.759h-3.953v1.877h3.522v.742h-3.522v1.973z" transform="translate(-2023.695 -598.515)" style="fill:#fff"/>
        <path data-name="Path 32529" d="M2389.05 619.79h1v5.351h3.8v.759h-4.806v-6.11z" transform="translate(-2323.007 -598.515)" style="fill:#fff"/>
        <path data-name="Path 32530" d="M2573.321 619.79h1v6.11h-1z" transform="translate(-2498.899 -598.515)" style="fill:#fff"/>
        <path data-name="Path 32531" d="m2701.423 625.9-.01-4.452-2.539 3.71h-.461l-2.539-3.684v4.426h-.964v-6.11h.823l2.93 4.295 2.89-4.295h.823l.01 6.11z" transform="translate(-2614.96 -598.515)" style="fill:#fff"/>
        <path data-name="Path 32532" d="M2958.841 619.79h1v6.11h-1z" transform="translate(-2866.89 -598.515)" style="fill:#fff"/>
        <path data-name="Path 32533" d="M3060.549 620.549h-2.408v-.759h5.81v.759h-2.408v5.351h-.993z" transform="translate(-2961.675 -598.515)" style="fill:#fff"/>
        <path data-name="Path 32534" d="M3268.247 625.141v.759h-5.1v-6.11h4.957v.759h-3.953v1.877h3.522v.742h-3.522v1.973z" transform="translate(-3157.362 -598.515)" style="fill:#fff"/>
        <path data-name="Path 32535" d="M3464.18 619.79h2.96a4.823 4.823 0 0 1 1.977.384 3.114 3.114 0 0 1 1.339 1.078 2.9 2.9 0 0 1 0 3.186 3.112 3.112 0 0 1-1.339 1.078 4.821 4.821 0 0 1-1.977.384h-2.96v-6.11zm2.9 5.351a3.664 3.664 0 0 0 1.5-.288 2.3 2.3 0 0 0 1-.807 2.227 2.227 0 0 0 0-2.4 2.3 2.3 0 0 0-1-.807 3.664 3.664 0 0 0-1.5-.288h-1.9v4.592h1.9z" transform="translate(-3349.252 -598.515)" style="fill:#fff"/>
    </g>
</svg>
