<svg xmlns="http://www.w3.org/2000/svg" width="51.837" height="48.026" viewBox="0 0 51.837 48.026">
    <g data-name="Group 14398">
        <path data-name="Path 33860" d="M24.121 25.455v-13.11h1.524a.763.763 0 0 0 .763-.763V7.009a.764.764 0 0 0-.763-.763H11.924a.764.764 0 0 0-.763.763v4.573a.764.764 0 0 0 .763.763h1.524v13.107A16.018 16.018 0 0 0 2.976 43.06a.763.763 0 0 0 1.507-.238 14.477 14.477 0 0 1 1.166-8.372h26.279A14.472 14.472 0 0 1 26.6 52.743H10.971A14.618 14.618 0 0 1 6.5 48.222a.762.762 0 0 0-1.293.808 16.154 16.154 0 0 0 5.143 5.126.76.76 0 0 0 .4.116h16.069a.771.771 0 0 0 .4-.116 16.011 16.011 0 0 0-3.1-28.7zM12.688 7.772h12.2v3.049h-12.2zm1.753 18.958a.764.764 0 0 0 .534-.73v-2.22h2.287a.763.763 0 1 0 0-1.526h-2.287v-2.288h2.287a.763.763 0 0 0 0-1.526h-2.287v-2.288h2.287a.763.763 0 0 0 0-1.526h-2.287v-2.287H22.6v13.656a.762.762 0 0 0 .534.727 14.583 14.583 0 0 1 7.969 6.2l-24.628.006a14.587 14.587 0 0 1 7.969-6.2z" transform="translate(-2.776 -6.246)" style="fill:#103cac"/>
        <path data-name="Path 33861" d="M40.688 76.592A2.287 2.287 0 1 0 38.4 78.88a2.291 2.291 0 0 0 2.288-2.288zm-3.051 0a.763.763 0 1 1 .763.763.763.763 0 0 1-.763-.763z" transform="translate(-17.817 -36.953)" style="fill:#103cac"/>
        <path data-name="Path 33862" d="M28.324 67.635a3.049 3.049 0 1 0-3.049 3.049 3.052 3.052 0 0 0 3.049-3.049zm-4.573 0a1.524 1.524 0 1 1 1.524 1.524 1.526 1.526 0 0 1-1.524-1.524z" transform="translate(-11.551 -32.568)" style="fill:#103cac"/>
        <path data-name="Path 33863" d="M80.166 23.019a.763.763 0 0 0 .763-.763v-3.048a.763.763 0 0 0-.763-.763h-1.524V7.014a.763.763 0 0 0-1.526 0v11.433H73.3V15.4h1.524a.764.764 0 0 0 .763-.763v-4.575a.764.764 0 0 0-.763-.763h-12.2a.763.763 0 0 0-.763.763v4.573a.764.764 0 0 0 .763.763h1.524v3.049h-2.28a.763.763 0 0 0-.763.763v3.049a.763.763 0 0 0 .763.763h2.287v19.056a4.573 4.573 0 1 0 9.146 0v-9.529a.763.763 0 0 0-1.526 0v9.527a3.049 3.049 0 1 1-6.1 0v-3.812h1.524a.763.763 0 1 0 0-1.526h-1.517v-2.287h1.524a.763.763 0 1 0 0-1.526h-1.524v-2.288h1.524a.763.763 0 1 0 0-1.526h-1.524v-2.288h1.524a.763.763 0 1 0 0-1.526h-1.524v-2.288h6.1v3.43a.763.763 0 0 0 1.526 0v-3.43h3.812v26.678H61.873a.764.764 0 0 0-.763.763v3.05a.764.764 0 0 0 .763.763h18.293a.764.764 0 0 0 .763-.763v-3.05a.764.764 0 0 0-.763-.763h-1.524V23.009zm-.761 29.729H62.636v-1.524h16.769zM63.4 10.823h10.669v3.049H63.4zm2.285 4.577h6.1v3.049h-6.1zm-3.051 6.1v-1.529H79.4v1.524z" transform="translate(-29.093 -6.248)" style="fill:#103cac"/>
        <path data-name="Path 33864" d="M82.083 47.982a.762.762 0 1 1-1.524 0 .762.762 0 1 1 1.524 0" transform="translate(-37.87 -24.733)" style="fill:#103cac"/>
        <path data-name="Path 33865" d="M6.083 77.846a.762.762 0 1 1-1.524 0 .762.762 0 1 1 1.524 0" transform="translate(-3.58 -38.207)" style="fill:#103cac"/>
    </g>
</svg>
